<svg xmlns="http://www.w3.org/2000/svg" xmlns:xlink="http://www.w3.org/1999/xlink" width="209" height="69.61" viewBox="0 0 209 69.61">
  <defs>
    <filter id="Sustracción_1" x="20.735" y="9.495" width="51.045" height="39.851" filterUnits="userSpaceOnUse">
      <feOffset dy="3" input="SourceAlpha"/>
      <feGaussianBlur stdDeviation="3" result="blur"/>
      <feFlood flood-opacity="0.161"/>
      <feComposite operator="in" in2="blur"/>
      <feComposite in="SourceGraphic"/>
    </filter>
    <filter id="Trazado_3" x="6.616" y="28.877" width="36.781" height="26.256" filterUnits="userSpaceOnUse">
      <feOffset dy="3" input="SourceAlpha"/>
      <feGaussianBlur stdDeviation="3" result="blur-2"/>
      <feFlood flood-opacity="0.161"/>
      <feComposite operator="in" in2="blur-2"/>
      <feComposite in="SourceGraphic"/>
    </filter>
    <filter id="Trazado_4" x="-4.454" y="20.274" width="42.049" height="24.559" filterUnits="userSpaceOnUse">
      <feOffset dy="3" input="SourceAlpha"/>
      <feGaussianBlur stdDeviation="3" result="blur-3"/>
      <feFlood flood-opacity="0.161"/>
      <feComposite operator="in" in2="blur-3"/>
      <feComposite in="SourceGraphic"/>
    </filter>
    <filter id="Trazado_5" x="-3.331" y="7.29" width="42.057" height="29.986" filterUnits="userSpaceOnUse">
      <feOffset dy="3" input="SourceAlpha"/>
      <feGaussianBlur stdDeviation="3" result="blur-4"/>
      <feFlood flood-opacity="0.161"/>
      <feComposite operator="in" in2="blur-4"/>
      <feComposite in="SourceGraphic"/>
    </filter>
    <filter id="Trazado_6" x="15.597" y="-1.097" width="29.237" height="30.412" filterUnits="userSpaceOnUse">
      <feOffset dy="3" input="SourceAlpha"/>
      <feGaussianBlur stdDeviation="3" result="blur-5"/>
      <feFlood flood-opacity="0.161"/>
      <feComposite operator="in" in2="blur-5"/>
      <feComposite in="SourceGraphic"/>
    </filter>
    <filter id="Trazado_7" x="30.937" y="-6.112" width="28.828" height="33.035" filterUnits="userSpaceOnUse">
      <feOffset dy="3" input="SourceAlpha"/>
      <feGaussianBlur stdDeviation="3" result="blur-6"/>
      <feFlood flood-opacity="0.161"/>
      <feComposite operator="in" in2="blur-6"/>
      <feComposite in="SourceGraphic"/>
    </filter>
    <filter id="Trazado_8" x="46.725" y="-3.519" width="27.745" height="31.931" filterUnits="userSpaceOnUse">
      <feOffset dy="3" input="SourceAlpha"/>
      <feGaussianBlur stdDeviation="3" result="blur-7"/>
      <feFlood flood-opacity="0.161"/>
      <feComposite operator="in" in2="blur-7"/>
      <feComposite in="SourceGraphic"/>
    </filter>
    <filter id="Trazado_9" x="14.709" y="26.573" width="34.807" height="33.001" filterUnits="userSpaceOnUse">
      <feOffset dx="2" dy="5" input="SourceAlpha"/>
      <feGaussianBlur stdDeviation="5" result="blur-8"/>
      <feFlood flood-opacity="0.161"/>
      <feComposite operator="in" in2="blur-8"/>
      <feComposite in="SourceGraphic"/>
    </filter>
    <filter id="Trazado_10" x="11.861" y="31.653" width="22.591" height="20.805" filterUnits="userSpaceOnUse">
      <feOffset dy="3" input="SourceAlpha"/>
      <feGaussianBlur stdDeviation="3" result="blur-9"/>
      <feFlood flood-opacity="0.161"/>
      <feComposite operator="in" in2="blur-9"/>
      <feComposite in="SourceGraphic"/>
    </filter>
    <filter id="Trazado_11" x="3.208" y="24.05" width="30.444" height="19.197" filterUnits="userSpaceOnUse">
      <feOffset dy="3" input="SourceAlpha"/>
      <feGaussianBlur stdDeviation="3" result="blur-10"/>
      <feFlood flood-opacity="0.161"/>
      <feComposite operator="in" in2="blur-10"/>
      <feComposite in="SourceGraphic"/>
    </filter>
    <filter id="Trazado_12" x="8.208" y="22.138" width="23.507" height="18.69" filterUnits="userSpaceOnUse">
      <feOffset dy="3" input="SourceAlpha"/>
      <feGaussianBlur stdDeviation="3" result="blur-11"/>
      <feFlood flood-opacity="0.161"/>
      <feComposite operator="in" in2="blur-11"/>
      <feComposite in="SourceGraphic"/>
    </filter>
    <filter id="Trazado_13" x="7.108" y="13.014" width="26.91" height="20.77" filterUnits="userSpaceOnUse">
      <feOffset dy="3" input="SourceAlpha"/>
      <feGaussianBlur stdDeviation="3" result="blur-12"/>
      <feFlood flood-opacity="0.161"/>
      <feComposite operator="in" in2="blur-12"/>
      <feComposite in="SourceGraphic"/>
    </filter>
    <filter id="Trazado_14" x="12.383" y="13.339" width="21.705" height="19.517" filterUnits="userSpaceOnUse">
      <feOffset dy="3" input="SourceAlpha"/>
      <feGaussianBlur stdDeviation="3" result="blur-13"/>
      <feFlood flood-opacity="0.161"/>
      <feComposite operator="in" in2="blur-13"/>
      <feComposite in="SourceGraphic"/>
    </filter>
    <filter id="Trazado_15" x="18.626" y="4.178" width="23.155" height="23.111" filterUnits="userSpaceOnUse">
      <feOffset dy="3" input="SourceAlpha"/>
      <feGaussianBlur stdDeviation="3" result="blur-14"/>
      <feFlood flood-opacity="0.161"/>
      <feComposite operator="in" in2="blur-14"/>
      <feComposite in="SourceGraphic"/>
    </filter>
    <filter id="Trazado_16" x="17.43" y="1.561" width="21.95" height="21.348" filterUnits="userSpaceOnUse">
      <feOffset dy="3" input="SourceAlpha"/>
      <feGaussianBlur stdDeviation="3" result="blur-15"/>
      <feFlood flood-opacity="0.161"/>
      <feComposite operator="in" in2="blur-15"/>
      <feComposite in="SourceGraphic"/>
    </filter>
    <filter id="Trazado_17" x="33.738" y="0.649" width="19.837" height="23.932" filterUnits="userSpaceOnUse">
      <feOffset dy="3" input="SourceAlpha"/>
      <feGaussianBlur stdDeviation="3" result="blur-16"/>
      <feFlood flood-opacity="0.161"/>
      <feComposite operator="in" in2="blur-16"/>
      <feComposite in="SourceGraphic"/>
    </filter>
    <filter id="Trazado_18" x="48.585" y="0.101" width="23.726" height="25.84" filterUnits="userSpaceOnUse">
      <feOffset dy="3" input="SourceAlpha"/>
      <feGaussianBlur stdDeviation="3" result="blur-17"/>
      <feFlood flood-opacity="0.161"/>
      <feComposite operator="in" in2="blur-17"/>
      <feComposite in="SourceGraphic"/>
    </filter>
    <clipPath id="clip-logo-2">
      <rect width="209" height="69.61"/>
    </clipPath>
  </defs>
  <g id="logo-2" clip-path="url(#clip-logo-2)">
    <g id="Grupo_10" data-name="Grupo 10" transform="translate(-431 -547)">
      <text id="VILLACURI_SAC" data-name="VILLACURI SAC" transform="translate(442 611)" font-size="20" font-family="Arial-Black, Arial" font-weight="800"><tspan x="0" y="0">VILLACURI SAC</tspan></text>
      <text id="ROEXPORTADORA" transform="translate(528 583)" font-size="11" font-family="Arial-BoldMT, Arial" font-weight="700"><tspan x="0" y="0">ROEXPORTADORA</tspan></text>
      <rect id="Rectángulo_1" data-name="Rectángulo 1" width="209" height="2" rx="1" transform="translate(431 591)"/>
      <g id="Grupo_2" data-name="Grupo 2" transform="translate(485.639 566.752)">
        <path id="Trazado_1" data-name="Trazado 1" d="M574.218,614.808h-3.566l10.535-14.872v-1.095l-2.752-.071v-1.2l8.5-.025,8.827,12.852a7.527,7.527,0,0,0,1.635,1.588,6.013,6.013,0,0,0,1.977.786h7.347v-3.724h-3.7v-1.371h9.4v6.094a30.174,30.174,0,0,1-6.92,1.088,72.231,72.231,0,0,1-7.3-.261,23.026,23.026,0,0,1-3.724-.705,11.128,11.128,0,0,1-4.818-3.494l-6.106-8.607-3.966,5.853h4.919l.958,2.307h-7.3Z" transform="translate(-570.652 -597.284)"/>
        <path id="Trazado_2" data-name="Trazado 2" d="M626.649,605.213l-3.659-5.595a13.963,13.963,0,0,1,3.447-1.841,20.54,20.54,0,0,1,4.816-.9h4.721a17.831,17.831,0,0,1,5.17.9,6.1,6.1,0,0,1,2.88,2.408v1.039h-6.091a2.863,2.863,0,0,0-1.039-1.275,7.153,7.153,0,0,0-1.605-.779h-4.934a5.367,5.367,0,0,0-2.62,1.888A9.012,9.012,0,0,0,626.649,605.213Z" transform="translate(-602.513 -596.88)"/>
      </g>
      <g id="Grupo_5" data-name="Grupo 5" transform="translate(436.046 547.388)">
        <g transform="matrix(1, 0, 0, 1, -5.05, -0.39)" filter="url(#Sustracción_1)">
          <g id="Sustracción_1-2" data-name="Sustracción 1" transform="translate(29.74 15.5)" fill="#f6bb3c">
            <path d="M 14.80732727050781 21.19894981384277 C 11.05362606048584 20.74970436096191 7.632632732391357 19.59854316711426 5.03870153427124 17.8947582244873 C 2.111871480941772 15.97231864929199 0.5000015497207642 13.50776863098145 0.5000015497207642 10.95510864257813 C 0.5000015497207642 9.581988334655762 0.9551515579223633 8.244688987731934 1.852801561355591 6.980358600616455 C 2.738451480865479 5.732948780059814 4.013301372528076 4.608498573303223 5.641941547393799 3.638248682022095 C 7.289061546325684 2.656988620758057 9.210661888122559 1.885678648948669 11.35335159301758 1.345748662948608 C 13.58055114746094 0.7845485806465149 15.94766139984131 0.4999985992908478 18.38891220092773 0.4999985992908478 C 21.2651424407959 0.4999985992908478 24.01309204101563 0.8899986147880554 26.5564022064209 1.659148573875427 C 28.35846328735352 2.204135417938232 30.00718307495117 2.934988021850586 31.40623474121094 3.803839921951294 C 26.18292808532715 3.816718816757202 21.26835250854492 4.957024097442627 17.55852127075195 7.018038749694824 C 13.73465156555176 9.142388343811035 11.62875175476074 11.99961853027344 11.62875175476074 15.06339836120605 C 11.62875175476074 17.25398826599121 12.74513339996338 19.38907241821289 14.80732727050781 21.19894981384277 Z" stroke="none"/>
            <path d="M 13.37748241424561 20.48402214050293 C 11.91082954406738 18.82904624938965 11.12875175476074 16.97029876708984 11.12875175476074 15.06339836120605 C 11.12875175476074 11.80989837646484 13.32598114013672 8.79744815826416 17.31570243835449 6.580958843231201 C 20.65469360351563 4.725972652435303 24.94267082214355 3.602502822875977 29.55253982543945 3.355529546737671 C 28.58287811279297 2.885210752487183 27.52800178527832 2.475351095199585 26.41167068481445 2.137748718261719 C 23.91532135009766 1.38278865814209 21.21607208251953 0.9999986290931702 18.38891220092773 0.9999986290931702 C 15.98881149291992 0.9999986290931702 13.66281127929688 1.279448628425598 11.47553157806396 1.830598592758179 C 9.379891395568848 2.358668565750122 7.503281593322754 3.111368656158447 5.897851467132568 4.067798614501953 C 4.329381465911865 5.002208709716797 3.10560154914856 6.079518795013428 2.260501623153687 7.269808769226074 C 1.424091577529907 8.447878837585449 1.000001549720764 9.687788963317871 1.000001549720764 10.95510864257813 C 1.000001549720764 13.33378887176514 2.53179144859314 15.64991855621338 5.313201427459717 17.47684860229492 C 7.497527599334717 18.91159057617188 10.28900718688965 19.94517135620117 13.37748241424561 20.48402214050293 M 16.46852111816406 21.8511791229248 L 16.46710205078125 21.85108947753906 C 11.97081184387207 21.57293891906738 7.814631462097168 20.31629943847656 4.764201641082764 18.31266784667969 C 1.691961526870728 16.29471778869629 1.563720729791385e-06 13.68174839019775 1.563720729791385e-06 10.95510864257813 C 1.563720729791385e-06 9.476188659667969 0.4862015545368195 8.041508674621582 1.445111513137817 6.690898418426514 C 2.371311664581299 5.386378765106201 3.697231531143188 4.214798450469971 5.386041641235352 3.208698511123657 C 7.074851512908936 2.202598571777344 9.041441917419434 1.412688612937927 11.23118114471436 0.8609086275100708 C 13.49826145172119 0.2896586060523987 15.90647125244141 -1.392211970596691e-06 18.38891220092773 -1.392211970596691e-06 C 21.31422233581543 -1.392211970596691e-06 24.11086082458496 0.3971986174583435 26.70114135742188 1.180558562278748 C 29.17160224914551 1.92767858505249 31.36532211303711 3.019388675689697 33.04514312744141 4.337648391723633 C 32.53858184814453 4.315378665924072 32.01742172241211 4.303728580474854 31.49589157104492 4.303728580474854 C 26.32280158996582 4.303728580474854 21.45931243896484 5.422918796539307 17.80134201049805 7.455118656158447 C 14.14331150054932 9.487339019775391 12.12875175476074 12.1893482208252 12.12875175476074 15.06339836120605 C 12.12875175476074 17.53036880493164 13.6695613861084 19.94069862365723 16.46735191345215 21.85037803649902 L 16.46852111816406 21.8511791229248 Z" stroke="none" fill="#f6bb3c"/>
          </g>
        </g>
        <g transform="matrix(1, 0, 0, 1, -5.05, -0.39)" filter="url(#Trazado_3)">
          <path id="Trazado_3-2" data-name="Trazado 3" d="M-610.809,789.759l9.269-7.256h8.473s.409,3.115-3.656,4.7S-610.809,789.759-610.809,789.759Z" transform="translate(626.93 -747.13)" fill="#f6bb3c" stroke="#f6bb3c" stroke-linecap="round" stroke-linejoin="round" stroke-width="1"/>
        </g>
        <g transform="matrix(1, 0, 0, 1, -5.05, -0.39)" filter="url(#Trazado_4)">
          <path id="Trazado_4-2" data-name="Trazado 4" d="M-639.1,763.347s7.108-1.312,10.771-1.973,3.558-.556,4.889-.546a11.523,11.523,0,0,1,3.623.869,13.394,13.394,0,0,1,3.765,2.127,15.748,15.748,0,0,1-3.765,1.906,15.728,15.728,0,0,1-4.17.639s-.564.116-4.343-.639S-639.1,763.347-639.1,763.347Z" transform="translate(644.15 -734.05)" fill="#f6bb3c" stroke="#f6bb3c" stroke-linecap="round" stroke-linejoin="round" stroke-width="1"/>
        </g>
        <g transform="matrix(1, 0, 0, 1, -5.05, -0.39)" filter="url(#Trazado_5)">
          <path id="Trazado_5-2" data-name="Trazado 5" d="M0,2.531S7.108,1.219,10.771.558,14.329,0,15.66.012a11.522,11.522,0,0,1,3.623.869c2.507.993,2.869,2.382,2.869,2.382a6.686,6.686,0,0,1-2.869,1.651,17.106,17.106,0,0,1-4.3.668,21.4,21.4,0,0,1-4.212-.668C6.993,4.158,0,2.531,0,2.531Z" transform="translate(7.63 13.89) rotate(14)" fill="#f6bb3c" stroke="#f6bb3c" stroke-linecap="round" stroke-linejoin="round" stroke-width="1"/>
        </g>
        <g transform="matrix(1, 0, 0, 1, -5.05, -0.39)" filter="url(#Trazado_6)">
          <path id="Trazado_6-2" data-name="Trazado 6" d="M-578.71,717.616s1.6-2.378.854-4.434-1.209-2.123-3.831-3.789a52.04,52.04,0,0,0-6.167-3.19l.354,5.245a7.5,7.5,0,0,0,1.134,2.977C-583.871,717.415-578.71,717.616-578.71,717.616Z" transform="translate(612.95 -700.8)" fill="#f6bb3c" stroke="#f6bb3c" stroke-linecap="round" stroke-linejoin="round" stroke-width="1"/>
        </g>
        <g transform="matrix(1, 0, 0, 1, -5.05, -0.39)" filter="url(#Trazado_7)">
          <path id="Trazado_7-2" data-name="Trazado 7" d="M-543.783,707.423s1.166-.8,2.457-1.887,2.507-2.258,2.507-2.258l-4.221-9.889-5.607,9.889a29.911,29.911,0,0,0,2.531,2.531A13.823,13.823,0,0,0-543.783,707.423Z" transform="translate(589.08 -693)" fill="#f6bb3c" stroke="#f6bb3c" stroke-linecap="round" stroke-linejoin="round" stroke-width="1"/>
        </g>
        <g transform="matrix(1, 0, 0, 1, -5.05, -0.39)" filter="url(#Trazado_8)">
          <path id="Trazado_8-2" data-name="Trazado 8" d="M-499.524,700.015v9.406l-7.446,3.524a11.292,11.292,0,0,1-1.142-2.879,10.1,10.1,0,0,1,0-3.276Z" transform="translate(564.49 -697.03)" fill="#f6bb3c" stroke="#f6bb3c" stroke-linecap="round" stroke-linejoin="round" stroke-width="1"/>
        </g>
        <g transform="matrix(1, 0, 0, 1, -5.05, -0.39)" filter="url(#Trazado_9)">
          <path id="Trazado_9-2" data-name="Trazado 9" d="M-576.371,785.872a11.953,11.953,0,0,0-2.775,1.054,10.924,10.924,0,0,0-2.032,1.946,10.963,10.963,0,0,0,2.9-.986A8.544,8.544,0,0,0-576.371,785.872Z" transform="translate(608.89 -749.3)" fill="#fbec95" opacity="0.66"/>
        </g>
        <g transform="matrix(1, 0, 0, 1, -5.05, -0.39)" filter="url(#Trazado_10)">
          <path id="Trazado_10-2" data-name="Trazado 10" d="M-598.681,791.436A14.708,14.708,0,0,1-596.4,789.6a8.825,8.825,0,0,1,2.309-.972,9.534,9.534,0,0,1-2.095,1.876A7.99,7.99,0,0,1-598.681,791.436Z" transform="translate(619.54 -750.98)" fill="#fbec95" opacity="0.66"/>
        </g>
        <g transform="matrix(1, 0, 0, 1, -5.05, -0.39)" filter="url(#Trazado_11)">
          <path id="Trazado_11-2" data-name="Trazado 11" d="M-620.8,769.2l12.444.177a10.907,10.907,0,0,1-4.418,1.018A79.875,79.875,0,0,1-620.8,769.2Z" transform="translate(633.01 -739.15)" fill="#fbec95" opacity="0.66"/>
        </g>
        <g transform="matrix(1, 0, 0, 1, -5.05, -0.39)" filter="url(#Trazado_12)">
          <path id="Trazado_12-2" data-name="Trazado 12" d="M-602.512,765h-5.507a8.639,8.639,0,0,1,2.937-.69A5.77,5.77,0,0,1-602.512,765Z" transform="translate(625.23 -736.17)" fill="#fbec95" opacity="0.66"/>
        </g>
        <g transform="matrix(1, 0, 0, 1, -5.05, -0.39)" filter="url(#Trazado_13)">
          <path id="Trazado_13-2" data-name="Trazado 13" d="M-610.829,740.994l8.91,2.68a16.588,16.588,0,0,1-5.41-.323A7.448,7.448,0,0,1-610.829,740.994Z" transform="translate(626.94 -721.98)" fill="#fbec95" opacity="0.66"/>
        </g>
        <g transform="matrix(1, 0, 0, 1, -5.05, -0.39)" filter="url(#Trazado_14)">
          <path id="Trazado_14-2" data-name="Trazado 14" d="M-597.346,741.861l3.705,1.48a3.219,3.219,0,0,0-1.435-1.276A5.526,5.526,0,0,0-597.346,741.861Z" transform="translate(618.73 -722.48)" fill="#fbec95" opacity="0.66"/>
        </g>
        <g transform="matrix(1, 0, 0, 1, -5.05, -0.39)" filter="url(#Trazado_15)">
          <path id="Trazado_15-2" data-name="Trazado 15" d="M-581.39,718.41l5.155,5.111s-2.7-.32-3.877-1.5S-581.39,718.41-581.39,718.41Z" transform="translate(609.02 -708.23)" fill="#fbec95" opacity="0.66"/>
        </g>
        <g transform="matrix(1, 0, 0, 1, -5.05, -0.39)" filter="url(#Trazado_16)">
          <path id="Trazado_16-2" data-name="Trazado 16" d="M-584.449,711.72a7.782,7.782,0,0,1,2.217,1.16,9.557,9.557,0,0,1,1.733,2.188Z" transform="translate(610.88 -704.16)" fill="#fbec95" opacity="0.66"/>
        </g>
        <g transform="matrix(1, 0, 0, 1, -5.05, -0.39)" filter="url(#Trazado_17)">
          <path id="Trazado_17-2" data-name="Trazado 17" d="M-540.931,715.322s-1.837-1.892-1.837-3.375,1.837-2.556,1.837-2.556a15.781,15.781,0,0,0-.323,2.953A16.219,16.219,0,0,0-540.931,715.322Z" transform="translate(585.51 -702.74)" fill="#fbec95" opacity="0.66"/>
        </g>
        <g transform="matrix(1, 0, 0, 1, -5.05, -0.39)" filter="url(#Trazado_18)">
          <path id="Trazado_18-2" data-name="Trazado 18" d="M-504.707,715.83a5.559,5.559,0,0,1,.839-4.227c1.4-1.96,4.775-3.614,4.775-3.614a40.229,40.229,0,0,0-3.614,4.162A16.169,16.169,0,0,0-504.707,715.83Z" transform="translate(562.4 -701.89)" fill="#fbec95" opacity="0.66"/>
        </g>
        <path id="Trazado_19" data-name="Trazado 19" d="M-544.018,747.305a14.11,14.11,0,0,1,5.067-4.668,14.266,14.266,0,0,1,6.862-.838,28.194,28.194,0,0,0-6.623,1.915A22.172,22.172,0,0,0-544.018,747.305Z" transform="translate(581.221 -722.796)" fill="#f9db76"/>
        <path id="Trazado_20" data-name="Trazado 20" d="M0,5.524A54.561,54.561,0,0,1,6.774,1.489C9.756.113,16.684,0,16.684,0S9.926.671,6.944,2.047,0,5.524,0,5.524Z" transform="translate(36.264 13.323) rotate(17)" fill="#f9db76"/>
      </g>
    </g>
  </g>
</svg>
